<?xml version="1.0" standalone="no"?>
<!DOCTYPE svg PUBLIC "-//W3C//DTD SVG 20010904//EN"
 "http://www.w3.org/TR/2001/REC-SVG-20010904/DTD/svg10.dtd">
<svg version="1.0" xmlns="http://www.w3.org/2000/svg"
 width="512.000000pt" height="512.000000pt" viewBox="0 0 512.000000 512.000000"
 preserveAspectRatio="xMidYMid meet">

<g transform="translate(0.000000,512.000000) scale(0.100000,-0.100000)"
fill="#000000" stroke="none">
<path d="M2275 4583 c-484 -40 -921 -134 -1440 -307 -274 -92 -694 -263 -773
-314 -28 -18 -62 -82 -62 -116 0 -52 460 -2021 478 -2045 10 -14 31 -34 46
-45 26 -20 43 -21 317 -24 l289 -3 0 -542 c0 -496 2 -545 18 -577 53 -107 211
-107 264 0 16 32 18 81 18 578 l0 542 490 0 490 0 0 -542 c0 -497 2 -546 18
-578 53 -107 211 -107 264 0 16 32 18 81 18 578 l0 542 490 0 490 0 0 -542 c0
-497 2 -546 18 -578 53 -107 211 -107 264 0 16 32 18 81 18 577 l0 542 289 3
c274 3 291 4 317 24 15 11 36 31 46 45 18 24 478 1993 478 2045 0 34 -34 98
-62 116 -13 8 -79 40 -148 71 -659 295 -1395 494 -2025 547 -110 9 -514 11
-610 3z m580 -303 c461 -39 970 -155 1466 -335 174 -64 454 -177 467 -189 3
-4 -79 -374 -183 -824 -103 -449 -192 -836 -197 -860 l-10 -42 -204 0 -204 0
0 347 0 346 78 -75 c51 -50 88 -78 110 -83 114 -25 211 76 181 188 -9 36 -42
73 -222 254 -236 235 -256 248 -339 224 -36 -11 -79 -49 -255 -224 -180 -181
-213 -218 -222 -254 -30 -111 63 -209 177 -188 27 5 56 26 114 83 l78 75 0
-346 0 -347 -490 0 -490 0 0 347 0 346 78 -75 c51 -50 88 -78 110 -83 114 -25
211 76 181 188 -9 36 -42 73 -222 254 -236 235 -256 248 -339 224 -36 -11 -79
-49 -255 -224 -180 -181 -213 -218 -222 -254 -30 -111 63 -209 177 -188 27 5
56 26 114 83 l78 75 0 -346 0 -347 -490 0 -490 0 0 347 0 346 78 -75 c51 -50
88 -78 110 -83 114 -25 211 76 181 188 -9 36 -42 73 -222 254 -176 175 -219
213 -254 224 -84 24 -104 11 -340 -224 -180 -181 -213 -218 -222 -254 -30
-111 63 -209 177 -188 27 5 56 26 114 83 l78 75 0 -346 0 -347 -205 0 c-113 0
-205 3 -205 6 0 3 -88 386 -195 851 -107 464 -195 851 -195 858 0 15 167 88
414 179 511 190 1040 315 1501 355 143 12 469 13 610 1z"/>
</g>
</svg>
